<svg id="Capa_1" enable-background="new 0 0 512 512" height="512" viewBox="0 0 512 512" width="512" xmlns="http://www.w3.org/2000/svg"><path d="m346 0h-45v203.22l55.61-55.61c2.81-2.82 4.39-6.63 4.39-10.61v-122c0-8.28-6.71-15-15-15z" fill="#2e4de6"/><path d="m151 15v122c0 3.98 1.58 7.79 4.4 10.61l55.6 55.6v-203.21h-45c-8.28 0-15 6.72-15 15z" fill="#4d6aff"/><g><path d="m256.005 272c-24.813 0-45-20.187-45-45v-30c0-8.284 6.716-15 15-15h60c8.284 0 15 6.716 15 15v30c0 24.813-20.187 45-45 45zm-15-60v15c0 8.271 6.729 15 15 15s15-6.729 15-15v-15z" fill="#fb3"/></g><path d="m301.005 227v-30c0-8.284-6.716-15-15-15h-30v30h15v15c0 8.271-6.729 15-15 15v30c24.813 0 45-20.187 45-45z" fill="#e68a2e"/><g><path d="m301 0v203.22l-4.39 4.39c-2.81 2.81-6.63 4.39-10.61 4.39h-60c-3.97 0-7.79-1.58-10.6-4.39l-4.4-4.4v-203.21z" fill="#e64545"/></g><path d="m256.005 212h29.995c3.98 0 7.8-1.58 10.61-4.39l4.39-4.39v-203.22h-44.995z" fill="#cc2929"/><g><g id="Medal_2_"><g><g><path d="m397.599 353.599-60 58.5-81.599-28.2 50.099-67.8 83.101 12.001c5.7.899 10.201 4.799 12.001 10.199 1.8 5.401.298 11.4-3.602 15.3z" fill="#e68a2e"/><path d="m351.7 494.599c.899 5.4-1.199 11.1-6 14.399-2.401 2.101-5.7 3.002-8.7 3.002-2.401 0-4.801-.601-6.901-1.8l-74.099-38.701v-87.599l81.599 28.2z" fill="#fb3"/><path d="m256 383.899v87.599l-74.099 38.702c-4.801 2.699-11.102 2.399-15.601-1.201-4.801-3.3-6.899-9-6-14.399l14.101-82.5z" fill="#ffe14d"/><path d="m256 383.899-81.599 28.2-60-58.5c-3.9-3.9-5.402-9.899-3.602-15.3 1.8-5.4 6.301-9.3 12.001-10.199l83.101-12.001z" fill="#fb3"/><path d="m306.099 316.099-50.099 67.8-50.099-67.8 36.899-66.299c5.4-9.6 21-9.6 26.4 0z" fill="#ffe14d"/><path d="m269.2 249.8c-2.7-4.8-7.95-7.2-13.2-7.2v141.299l50.099-67.8z" fill="#fb3"/></g></g></g></g></svg>